<?xml version="1.0" standalone="no"?>
<!DOCTYPE svg PUBLIC "-//W3C//DTD SVG 20010904//EN"
 "http://www.w3.org/TR/2001/REC-SVG-20010904/DTD/svg10.dtd">
<svg version="1.0" xmlns="http://www.w3.org/2000/svg"
 width="840.000000pt" height="859.000000pt" viewBox="0 0 840.000000 859.000000"
 preserveAspectRatio="xMidYMid meet">

<g transform="translate(0.000000,859.000000) scale(0.100000,-0.100000)"
fill="#000000" stroke="none">
<path d="M3740 7604 c-14 -2 -65 -9 -115 -15 -96 -11 -323 -60 -365 -78 -22
-10 -21 -10 10 -4 114 21 110 3 -5 -22 -177 -39 -575 -185 -730 -269 -61 -33
-53 -30 105 34 269 110 470 172 760 231 85 17 157 34 160 36 3 3 -40 3 -95 1
-126 -7 -87 6 90 29 335 43 612 8 830 -105 102 -53 230 -183 278 -282 61 -126
72 -183 72 -370 -1 -145 -4 -178 -27 -270 -87 -345 -272 -686 -576 -1065 -114
-142 -376 -412 -517 -534 -55 -47 -102 -88 -105 -91 -3 -3 -29 -25 -57 -48
-45 -37 -51 -47 -43 -63 10 -17 21 -9 115 86 58 58 105 102 105 97 0 -13 -122
-153 -167 -193 -29 -24 -38 -39 -34 -52 8 -21 24 -5 133 128 36 44 167 181
290 305 345 346 557 615 782 995 59 99 74 120 82 112 18 -18 -60 -220 -148
-387 -68 -126 -215 -347 -329 -493 -164 -210 -445 -487 -720 -709 -51 -41 -55
-47 -45 -66 12 -22 12 -22 51 10 220 178 533 484 790 774 218 245 303 330 317
316 26 -26 -112 -266 -268 -462 -115 -145 -452 -472 -641 -624 -95 -76 -176
-142 -179 -147 -3 -6 19 -52 50 -104 45 -74 60 -93 74 -88 32 12 186 121 322
229 165 131 467 430 584 579 145 183 289 411 398 630 94 187 174 444 165 526
-8 65 -40 152 -73 194 -29 38 -89 75 -123 75 -28 0 -71 -47 -105 -114 -15 -32
-30 -56 -31 -54 -2 2 5 44 16 93 24 115 36 498 18 614 -33 220 -173 432 -334
506 -173 81 -356 116 -591 114 -82 -1 -160 -3 -174 -5z"/>
<path d="M3863 7503 c20 -2 54 -2 75 0 20 2 3 4 -38 4 -41 0 -58 -2 -37 -4z"/>
<path d="M4003 7493 c9 -2 25 -2 35 0 9 3 1 5 -18 5 -19 0 -27 -2 -17 -5z"/>
<path d="M3458 7473 c6 -2 18 -2 25 0 6 3 1 5 -13 5 -14 0 -19 -2 -12 -5z"/>
<path d="M4178 7463 c7 -3 16 -2 19 1 4 3 -2 6 -13 5 -11 0 -14 -3 -6 -6z"/>
<path d="M3268 7433 c7 -3 16 -2 19 1 4 3 -2 6 -13 5 -11 0 -14 -3 -6 -6z"/>
<path d="M3228 7423 c7 -3 16 -2 19 1 4 3 -2 6 -13 5 -11 0 -14 -3 -6 -6z"/>
<path d="M4300 7425 c0 -2 15 -12 33 -21 63 -32 153 -97 211 -153 42 -40 53
-47 37 -24 -35 51 -129 129 -201 168 -67 35 -80 40 -80 30z"/>
<path d="M3040 7370 c-18 -12 -2 -12 25 0 13 6 15 9 5 9 -8 0 -22 -4 -30 -9z"/>
<path d="M4550 7207 c0 -12 93 -127 98 -122 3 2 -3 16 -12 30 -9 14 -14 31
-10 38 4 7 3 9 -1 4 -5 -4 -24 7 -42 25 -18 17 -33 29 -33 25z"/>
<path d="M2435 7169 c-16 -10 -26 -19 -22 -19 11 0 67 29 67 35 0 9 -15 4 -45
-16z"/>
<path d="M2376 7100 c-194 -92 -311 -161 -521 -306 -167 -115 -261 -190 -257
-204 2 -7 -3 -10 -12 -7 -14 6 -34 -10 -35 -26 0 -5 -20 -25 -45 -44 -62 -48
-58 -54 4 -9 63 45 104 80 153 129 20 21 37 35 37 32 0 -3 12 6 28 19 37 33
229 162 330 222 46 27 115 69 155 92 40 24 140 77 222 118 83 40 146 73 140
74 -5 0 -95 -41 -199 -90z m-716 -464 c0 -3 -15 -14 -32 -26 l-33 -22 30 26
c31 27 35 29 35 22z"/>
<path d="M2283 7089 c-51 -27 -93 -52 -93 -55 0 -6 169 84 185 98 18 16 0 7
-92 -43z"/>
<path d="M2154 7014 c-18 -14 -18 -15 4 -4 12 6 22 13 22 15 0 8 -5 6 -26 -11z"/>
<path d="M2104 6984 c-18 -14 -18 -15 4 -4 12 6 22 13 22 15 0 8 -5 6 -26 -11z"/>
<path d="M2054 6954 c-18 -14 -18 -15 4 -4 12 6 22 13 22 15 0 8 -5 6 -26 -11z"/>
<path d="M1999 6919 l-24 -20 28 17 c15 9 27 18 27 20 0 8 -8 4 -31 -17z"/>
<path d="M1933 6879 c-35 -22 -46 -37 -15 -20 22 13 58 40 52 41 -3 0 -20 -10
-37 -21z"/>
<path d="M1860 6829 c-22 -18 -22 -19 -3 -10 12 6 25 16 28 21 9 15 3 12 -25
-11z"/>
<path d="M1789 6779 l-24 -20 28 17 c15 9 27 18 27 20 0 8 -8 4 -31 -17z"/>
<path d="M1869 6763 c-13 -16 -12 -17 4 -4 16 13 21 21 13 21 -2 0 -10 -8 -17
-17z"/>
<path d="M1725 6734 l-30 -26 33 22 c17 12 32 23 32 26 0 7 -4 5 -35 -22z"/>
<path d="M1758 6685 c-49 -36 -88 -67 -88 -71 0 -8 17 4 103 69 67 52 85 68
75 67 -2 0 -42 -30 -90 -65z"/>
<path d="M1629 6663 c-13 -16 -12 -17 4 -4 9 7 17 15 17 17 0 8 -8 3 -21 -13z"/>
<path d="M1589 6633 c-13 -16 -12 -17 4 -4 9 7 17 15 17 17 0 8 -8 3 -21 -13z"/>
<path d="M1539 6593 c-13 -16 -12 -17 4 -4 16 13 21 21 13 21 -2 0 -10 -8 -17
-17z"/>
<path d="M1494 6558 l-19 -23 23 19 c21 18 27 26 19 26 -2 0 -12 -10 -23 -22z"/>
<path d="M1439 6513 c-13 -16 -12 -17 4 -4 9 7 17 15 17 17 0 8 -8 3 -21 -13z"/>
<path d="M1379 6463 c-13 -16 -12 -17 4 -4 16 13 21 21 13 21 -2 0 -10 -8 -17
-17z"/>
<path d="M2420 6442 c0 -4 10 -12 23 -17 34 -15 35 -68 2 -101 -35 -35 -55
-28 -85 29 -25 47 -25 48 -6 63 19 13 18 14 -15 14 -40 0 -219 -42 -277 -65
-23 -9 -47 -15 -54 -12 -12 4 -148 -58 -148 -67 0 -2 10 -2 23 1 19 4 20 3 5
-7 -10 -6 -18 -16 -18 -23 -1 -19 -49 -69 -112 -116 -32 -24 -58 -45 -58 -47
0 -1 20 9 46 23 53 30 71 25 21 -6 -68 -42 -60 -50 18 -20 83 32 104 36 65 14
-32 -18 -26 -18 34 0 27 8 64 15 83 15 30 0 33 -3 33 -31 0 -17 -9 -43 -20
-59 -11 -15 -17 -30 -13 -33 3 -4 -29 -48 -73 -99 -72 -86 -73 -93 -2 -30 15
14 35 30 46 36 104 61 145 91 267 191 140 116 318 284 336 318 6 9 7 22 4 27
-7 12 -125 14 -125 2z m-150 -82 c13 -8 13 -10 -2 -10 -9 0 -20 5 -23 10 -8
13 5 13 25 0z m-138 -31 c-24 -11 -49 -18 -55 -16 -7 2 8 11 33 20 62 21 74
19 22 -4z m187 -5 c3 -2 6 -24 7 -47 1 -23 -1 -36 -3 -28 -5 11 -7 11 -14 0
-5 -8 -7 -1 -7 20 1 24 -5 39 -23 52 l-24 18 30 -5 c16 -3 32 -7 34 -10z m-74
-174 c-16 -16 -33 -30 -39 -30 -9 0 53 59 63 60 3 0 -8 -13 -24 -30z m-189 -5
c7 -18 -12 -69 -33 -87 -8 -6 -5 4 7 25 28 47 21 65 -27 70 l-38 4 43 1 c30 2
44 -2 48 -13z m124 -19 c0 -2 -8 -10 -17 -17 -16 -13 -17 -12 -4 4 13 16 21
21 21 13z m-170 -89 c0 -2 -10 -12 -22 -23 l-23 -19 19 23 c18 21 26 27 26 19z"/>
<path d="M1299 6393 l-34 -38 38 34 c20 19 37 36 37 38 0 8 -8 0 -41 -34z"/>
<path d="M1165 6268 l-70 -73 73 70 c39 38 72 71 72 72 0 8 -11 -2 -75 -69z"/>
<path d="M1196 6233 c-196 -189 -478 -515 -581 -671 -15 -23 -30 -40 -33 -38
-6 6 121 184 206 289 35 44 58 76 52 72 -21 -13 -204 -248 -276 -355 -138
-205 -238 -389 -231 -426 2 -13 1 -22 -3 -19 -3 2 -16 -27 -27 -66 -23 -78
-15 -93 12 -21 28 74 111 236 181 353 150 249 351 502 624 783 148 153 179
187 168 186 -2 0 -43 -39 -92 -87z m-666 -802 c-29 -44 -54 -81 -57 -81 -5 0
-2 5 55 98 24 40 46 71 49 69 2 -3 -19 -41 -47 -86z m-80 -131 c-11 -22 -23
-40 -25 -40 -3 0 4 18 15 40 11 22 23 40 25 40 3 0 -4 -18 -15 -40z m-57 -105
c-9 -19 -18 -33 -21 -31 -4 5 26 66 33 66 3 0 -3 -16 -12 -35z"/>
<path d="M1733 6219 c-109 -58 -138 -78 -90 -63 16 5 5 -11 -36 -55 -32 -34
-57 -66 -55 -73 5 -14 29 -24 27 -11 -6 34 2 41 39 36 33 -4 39 -2 49 18 20
44 131 173 169 196 49 31 -2 7 -103 -48z m-29 -61 c-11 -13 -35 -41 -54 -63
-19 -22 -30 -31 -26 -20 4 11 8 24 9 30 3 13 69 74 81 75 5 0 1 -10 -10 -22z"/>
<path d="M980 6085 c-41 -41 -72 -75 -69 -75 2 0 38 34 79 75 41 41 72 75 69
75 -2 0 -38 -34 -79 -75z"/>
<path d="M859 5953 l-34 -38 38 34 c20 19 37 36 37 38 0 8 -8 0 -41 -34z"/>
<path d="M874 5928 l-29 -33 33 29 c17 17 32 31 32 33 0 8 -8 1 -36 -29z"/>
<path d="M1345 5811 c-376 -338 -656 -786 -734 -1173 -38 -188 -41 -168 42
-254 l72 -76 78 158 c200 405 419 717 735 1047 59 61 95 104 80 94 -37 -23
-41 -22 -25 10 13 24 12 30 -15 69 -16 23 -38 64 -49 89 -19 43 -23 46 -50 40
-36 -8 -46 12 -31 61 5 19 9 34 9 34 -1 0 -52 -45 -112 -99z"/>
<path d="M789 5873 l-24 -28 28 24 c25 23 32 31 24 31 -2 0 -14 -12 -28 -27z"/>
<path d="M4055 5891 l70 -6 -120 -10 c-105 -8 -113 -10 -65 -15 40 -4 54 -9
52 -19 -2 -10 3 -12 20 -7 13 4 105 10 205 13 139 4 186 9 194 20 7 7 9 17 5
20 -4 4 -102 8 -219 9 -117 1 -181 -1 -142 -5z"/>
<path d="M1916 5865 c-11 -8 -15 -15 -9 -15 6 0 16 7 23 15 16 19 11 19 -14 0z"/>
<path d="M748 5823 c-45 -54 -92 -116 -82 -111 12 8 107 128 101 128 -2 0 -11
-8 -19 -17z"/>
<path d="M4115 5829 c-94 -10 -154 -22 -249 -50 -52 -16 -66 -23 -55 -31 11
-7 8 -9 -9 -5 -25 6 -103 -29 -171 -76 -68 -46 -161 -146 -154 -165 5 -11 3
-13 -7 -7 -8 5 -11 4 -7 -2 4 -6 0 -16 -7 -22 -13 -11 -56 -93 -56 -106 0 -8
61 47 142 128 70 70 88 105 46 91 -28 -8 -85 -51 -91 -67 -2 -7 -7 -9 -11 -6
-10 9 110 112 180 154 32 20 85 45 117 57 40 14 54 24 45 29 -9 6 -9 9 -1 9 6
0 19 3 29 7 12 5 15 3 9 -6 -5 -9 0 -8 16 2 24 15 208 30 391 32 86 1 118 11
104 34 -8 13 -140 13 -261 0z"/>
<path d="M3620 5797 c-129 -48 -208 -95 -280 -167 -126 -125 -190 -305 -190
-540 0 -210 41 -389 166 -723 70 -189 92 -269 145 -512 11 -55 30 -136 41
-180 11 -44 26 -107 34 -140 12 -56 110 -354 167 -510 28 -78 64 -116 252
-267 142 -113 159 -127 161 -125 1 1 -9 53 -21 115 -31 150 -36 272 -17 404
l15 108 41 -34 c102 -83 393 -296 540 -395 212 -143 227 -164 371 -506 37 -88
78 -180 90 -205 l23 -46 149 -47 c197 -62 308 -88 554 -131 316 -56 441 -66
810 -66 436 0 631 16 844 71 287 73 491 228 594 450 31 67 84 249 75 258 -2 3
-7 -5 -11 -17 -3 -13 -21 -54 -39 -93 -152 -316 -454 -469 -931 -469 -541 0
-1238 224 -1948 627 -349 199 -623 404 -982 734 -487 449 -895 1025 -995 1404
-30 113 -32 130 -32 305 0 175 1 189 27 265 36 110 90 198 167 276 69 70 116
103 220 156 82 41 69 41 -40 0z m-234 -1326 c189 -309 304 -469 490 -686 359
-419 760 -759 1414 -1203 121 -82 170 -121 153 -122 -35 -1 -265 110 -488 235
-586 328 -1135 838 -1435 1335 -114 189 -220 440 -220 522 0 30 0 31 20 13 11
-10 41 -52 66 -94z m2555 -2270 c241 -75 493 -142 714 -192 137 -30 150 -42
40 -34 -280 19 -965 211 -1070 300 -19 16 -18 16 21 11 22 -3 155 -41 295 -85z"/>
<path d="M1816 5792 c-22 -15 -42 -33 -44 -41 -3 -8 16 2 42 23 40 33 53 47
44 46 -2 -1 -21 -13 -42 -28z"/>
<path d="M582 5603 c-279 -395 -434 -790 -434 -1108 -1 -225 57 -381 186 -511
39 -39 80 -76 91 -82 11 -5 -9 20 -46 58 -110 114 -169 271 -190 505 -8 89 -8
89 -3 -20 2 -60 7 -126 9 -145 5 -29 4 -31 -5 -12 -17 39 -32 194 -25 267 16
182 40 267 166 595 34 88 134 264 235 413 51 75 91 137 89 137 -2 0 -35 -44
-73 -97z"/>
<path d="M5177 5628 c-19 -24 -60 -86 -92 -138 -97 -159 -179 -281 -244 -363
-35 -43 -61 -81 -58 -83 12 -12 295 386 403 568 6 10 13 21 16 23 7 8 118 -36
118 -46 0 -5 7 -5 17 -2 11 4 14 3 9 -5 -4 -7 -2 -10 7 -6 16 6 94 -29 397
-181 232 -116 318 -161 335 -176 5 -5 15 -9 22 -9 12 0 95 -45 203 -108 l25
-14 -25 20 c-14 12 -83 56 -155 99 -147 88 -224 137 -242 153 -7 6 -13 8 -13
4 0 -4 -8 0 -17 9 -53 47 -610 297 -662 297 -5 0 -25 -19 -44 -42z m179 -19
c125 -49 414 -183 414 -192 0 -3 -75 30 -167 73 -93 42 -217 96 -278 120 -60
23 -112 44 -114 46 -13 12 30 -2 145 -47z"/>
<path d="M3640 5581 c0 -5 7 -11 14 -14 10 -4 13 -1 9 9 -6 15 -23 19 -23 5z"/>
<path d="M3606 5525 c-3 -8 -1 -15 4 -15 6 0 10 7 10 15 0 8 -2 15 -4 15 -2 0
-6 -7 -10 -15z"/>
<path d="M3630 5530 c0 -5 5 -10 10 -10 6 0 10 5 10 10 0 6 -4 10 -10 10 -5 0
-10 -4 -10 -10z"/>
<path d="M3635 5500 c-3 -6 1 -7 9 -4 18 7 21 14 7 14 -6 0 -13 -4 -16 -10z"/>
<path d="M3596 5475 c-11 -8 -15 -15 -9 -15 6 0 16 7 23 15 16 19 11 19 -14 0z"/>
<path d="M2910 5200 c-6 -11 -8 -20 -6 -20 3 0 10 9 16 20 6 11 8 20 6 20 -3
0 -10 -9 -16 -20z"/>
<path d="M4930 5075 c7 -9 15 -13 17 -11 7 7 -7 26 -19 26 -6 0 -6 -6 2 -15z"/>
<path d="M4823 4971 c-54 -43 -141 -131 -145 -146 -2 -5 -6 -9 -10 -8 -4 2
-65 -55 -137 -126 -156 -154 -217 -206 -226 -191 -4 7 -15 3 -32 -10 -14 -11
-32 -20 -39 -20 -7 0 -17 -6 -21 -13 -14 -23 -96 -83 -171 -125 -82 -47 -113
-55 -67 -18 17 13 30 29 30 35 0 15 205 143 221 137 7 -3 18 2 24 10 7 8 9 14
4 14 -4 0 3 11 16 25 13 14 30 23 37 21 7 -3 13 1 13 8 0 15 68 71 76 63 3 -2
-6 -17 -18 -33 -13 -16 -30 -38 -38 -49 -14 -19 -14 -19 6 -2 11 9 26 17 32
17 7 0 12 4 12 9 0 4 32 35 71 67 49 41 78 74 94 109 13 27 22 51 20 54 -3 2
-22 -11 -44 -30 -21 -19 -97 -83 -167 -143 -71 -59 -128 -112 -126 -118 1 -5
-2 -7 -8 -3 -5 3 -42 -16 -82 -43 -95 -63 -145 -91 -269 -153 -55 -28 -99 -53
-96 -56 3 -3 38 11 76 30 39 19 71 33 71 31 0 -22 -31 -55 -66 -72 -24 -12
-44 -27 -44 -33 0 -6 25 3 56 20 30 16 54 25 52 19 -2 -6 -23 -20 -46 -32 -23
-12 -40 -26 -37 -33 4 -13 -17 -23 -51 -23 -14 0 -38 -7 -55 -15 -25 -13 -28
-19 -19 -35 14 -26 17 -25 69 10 24 16 48 27 53 24 5 -3 33 8 63 25 62 35 73
38 54 14 -19 -23 -7 -16 124 75 96 67 131 95 95 77 -7 -4 -4 0 6 9 10 8 23 13
27 10 5 -2 14 4 21 16 7 11 18 20 24 20 18 0 330 236 337 254 4 10 -26 -9 -66
-42 -39 -32 -80 -62 -89 -65 -28 -10 17 67 57 97 45 35 51 33 24 -6 l-23 -33
39 34 c22 19 69 60 105 90 158 137 286 291 241 291 -5 0 -31 -17 -58 -39z
m-23 -71 c0 -5 -2 -10 -4 -10 -3 0 -8 5 -11 10 -3 6 -1 10 4 10 6 0 11 -4 11
-10z m-57 -57 c-4 -11 -8 -13 -11 -5 -2 7 -9 9 -14 6 -7 -4 -8 -2 -4 4 12 19
36 15 29 -5z m-133 -106 c0 -2 -10 -12 -22 -23 l-23 -19 19 23 c18 21 26 27
26 19z m-460 -371 c0 -2 -33 -28 -72 -57 -40 -29 -77 -57 -83 -61 -11 -10 51
15 100 39 40 20 23 4 -49 -46 -58 -40 -83 -51 -71 -31 3 5 -13 1 -37 -10 -41
-18 -69 -18 -38 0 8 5 67 45 130 89 119 83 120 84 120 77z m-150 -20 c0 -3 -4
-8 -10 -11 -5 -3 -10 -1 -10 4 0 6 5 11 10 11 6 0 10 -2 10 -4z"/>
<path d="M221 4774 c0 -11 3 -14 6 -6 3 7 2 16 -1 19 -3 4 -6 -2 -5 -13z"/>
<path d="M6775 4723 c6 -6 57 -51 115 -100 58 -50 114 -100 124 -112 11 -11
26 -21 35 -21 17 0 -102 116 -184 179 -48 37 -111 74 -90 54z"/>
<path d="M5566 4694 c-19 -18 -19 -22 -3 -52 13 -22 14 -22 29 -5 16 19 38 57
38 67 0 13 -50 5 -64 -10z"/>
<path d="M7025 4539 c138 -127 291 -283 390 -399 50 -58 103 -118 120 -135 16
-16 30 -36 31 -42 4 -24 106 -143 117 -136 7 4 8 0 4 -11 -4 -9 -3 -15 2 -12
13 9 34 -21 25 -36 -4 -7 -4 -10 1 -6 9 9 35 -9 35 -24 0 -5 -6 -6 -12 -2 -8
4 -10 3 -5 -2 5 -5 14 -9 20 -9 5 0 12 -6 15 -14 3 -10 0 -11 -9 -5 -10 6 -9
1 3 -16 9 -14 22 -24 28 -22 7 2 10 -3 7 -11 -6 -15 46 -101 55 -92 2 3 9 -5
14 -18 6 -12 28 -56 49 -97 81 -160 94 -188 120 -265 41 -124 56 -210 61 -340
2 -83 -1 -137 -10 -175 -8 -30 -22 -84 -31 -120 -8 -35 -29 -89 -45 -120 -22
-41 -24 -49 -8 -30 30 35 74 134 95 210 12 45 17 104 18 195 0 148 -16 238
-72 409 -39 116 -160 373 -188 396 -9 7 -44 54 -77 104 -91 136 -178 247 -188
241 -5 -3 -12 0 -16 6 -4 8 -3 9 4 5 29 -18 5 17 -79 114 -163 189 -476 498
-532 526 -21 10 -1 -13 58 -67z m646 -691 c20 -36 0 -16 -40 40 -40 54 -40 55
-6 17 20 -22 40 -48 46 -57z m117 -173 c-3 -3 -9 2 -12 12 -6 14 -5 15 5 6 7
-7 10 -15 7 -18z m53 -80 l10 -20 -16 20 c-9 11 -21 29 -26 40 l-10 20 16 -20
c9 -11 21 -29 26 -40z"/>
<path d="M6486 4328 c-3 -18 -8 -58 -11 -88 -3 -30 -17 -79 -32 -108 -32 -68
-72 -95 -130 -89 l-43 5 73 -66 c39 -37 113 -105 162 -152 122 -116 130 -122
103 -73 -28 52 -22 71 57 171 77 96 113 122 173 122 23 0 42 4 42 9 0 11 -84
88 -160 146 -64 48 -218 155 -224 155 -3 0 -7 -15 -10 -32z"/>
<path d="M7278 4233 c17 -21 90 -106 164 -188 73 -83 148 -169 166 -190 19
-22 30 -33 26 -25 -16 32 -95 128 -163 200 -39 41 -83 93 -98 115 -32 47 -103
125 -116 125 -5 0 5 -17 21 -37z"/>
<path d="M3738 4234 c-16 -8 -28 -21 -28 -28 0 -9 -9 -12 -26 -8 -19 3 -25 1
-20 -7 12 -19 39 -12 75 19 40 34 39 45 -1 24z"/>
<path d="M264 4191 c8 -54 49 -141 77 -167 22 -19 22 -19 10 3 -6 12 -25 59
-42 105 -36 99 -55 123 -45 59z"/>
<path d="M3710 4160 c-9 -6 -10 -10 -3 -10 6 0 15 5 18 10 8 12 4 12 -15 0z"/>
<path d="M6832 3994 c-12 -8 -27 -25 -33 -37 -9 -18 -6 -16 16 6 22 23 34 28
61 25 35 -4 46 5 18 16 -24 9 -38 7 -62 -10z"/>
<path d="M7035 3930 c4 -6 -5 -24 -19 -41 -14 -17 -26 -37 -26 -44 0 -7 -2
-20 -5 -27 -4 -9 22 -35 70 -72 60 -45 72 -51 55 -28 -26 35 -20 52 17 52 29
0 64 -34 110 -108 24 -38 28 -52 17 -52 -30 0 -25 -32 14 -98 22 -37 50 -91
62 -120 25 -58 35 -64 20 -13 -14 50 13 22 40 -42 39 -90 61 -179 67 -273 7
-106 -5 -152 -48 -188 -25 -21 -33 -23 -59 -15 -27 10 -71 52 -133 129 -45 56
-18 11 42 -70 73 -97 81 -110 56 -90 -14 11 -13 7 4 -17 13 -17 39 -39 57 -49
31 -17 37 -17 61 -4 15 8 38 38 52 65 24 46 26 59 25 175 -1 125 -11 207 -40
309 -23 80 -26 56 -4 -29 11 -41 22 -113 25 -160 l4 -85 -15 65 c-51 215 -100
347 -194 514 -34 60 -47 92 -39 97 7 4 -2 22 -27 50 -72 83 -79 92 -64 84 8
-5 0 6 -19 23 -18 18 -35 32 -37 32 -2 0 -13 9 -24 20 -20 20 -56 28 -45 10z"/>
<path d="M7150 3886 c0 -2 8 -10 18 -17 15 -13 16 -12 3 4 -13 16 -21 21 -21
13z"/>
<path d="M1855 3799 c-93 -33 -271 -92 -395 -131 -254 -80 -323 -107 -356
-143 -20 -21 -21 -25 -6 -26 9 0 80 -6 157 -13 l140 -12 50 37 c63 47 118 74
285 142 199 80 354 148 364 157 5 5 -9 2 -30 -5 -26 -9 -43 -10 -51 -3 -15 12
-6 38 13 38 8 0 14 5 14 10 0 14 3 15 -185 -51z"/>
<path d="M6814 3766 c-36 -35 -44 -50 -44 -79 0 -36 21 -67 45 -67 57 0 88 47
89 136 1 50 -1 54 -23 54 -15 0 -40 -17 -67 -44z"/>
<path d="M7236 3765 c20 -25 34 -48 31 -52 -3 -3 13 -33 37 -67 45 -63 82
-131 123 -226 20 -46 23 -49 18 -20 -14 82 -188 388 -230 404 -9 3 0 -14 21
-39z"/>
<path d="M7640 3806 c0 -2 8 -10 18 -17 15 -13 16 -12 3 4 -13 16 -21 21 -21
13z"/>
<path d="M6645 3749 c-4 -6 -5 -12 -2 -15 2 -3 7 2 10 11 7 17 1 20 -8 4z"/>
<path d="M7769 3630 c12 -19 49 -79 82 -132 34 -54 63 -98 66 -98 7 0 -56 109
-105 180 -51 73 -77 103 -43 50z"/>
<path d="M6770 3569 c0 -10 157 -209 165 -209 3 0 -11 22 -30 49 -19 26 -35
53 -35 60 0 19 -71 111 -86 111 -8 0 -14 -5 -14 -11z"/>
<path d="M7000 3286 c0 -5 117 -167 171 -236 10 -14 5 0 -12 30 -45 80 -159
227 -159 206z"/>
<path d="M7970 3290 c0 -3 13 -43 29 -90 15 -47 36 -119 46 -160 21 -85 34
-77 16 9 -15 68 -60 199 -78 226 -7 11 -13 17 -13 15z"/>
<path d="M7420 3045 c0 -67 -56 -133 -102 -120 -21 6 -21 4 6 -20 36 -33 64
-29 93 14 17 26 23 48 23 92 0 33 -4 59 -10 59 -5 0 -10 -11 -10 -25z m0 -96
c-7 -16 -21 -34 -31 -40 -25 -13 -24 -4 1 24 12 12 24 33 27 47 4 14 8 19 11
12 2 -7 -2 -26 -8 -43z"/>
<path d="M7370 2966 c-6 -8 -21 -17 -33 -19 -21 -4 -21 -4 -1 -6 11 0 29 8 39
19 10 11 16 20 13 20 -3 0 -11 -6 -18 -14z"/>
<path d="M7982 2523 c-19 -28 -74 -140 -106 -218 l-17 -40 41 40 c47 46 97
140 106 203 8 49 3 52 -24 15z"/>
</g>
</svg>
